<svg width="18" height="17" viewBox="0 0 18 17" fill="none" xmlns="http://www.w3.org/2000/svg">
<path d="M15.1538 4H2.84615C1.82655 4 1 4.89543 1 6V14C1 15.1046 1.82655 16 2.84615 16H15.1538C16.1734 16 17 15.1046 17 14V6C17 4.89543 16.1734 4 15.1538 4Z" stroke="white" stroke-width="1.3" stroke-linejoin="round"/>
<path d="M15 4.33304V3.0829C14.9999 2.77628 14.9373 2.47347 14.8165 2.19606C14.6957 1.91865 14.5199 1.67349 14.3014 1.47806C14.083 1.28263 13.8273 1.14176 13.5527 1.06549C13.2782 0.98922 12.9914 0.979435 12.7129 1.03683L2.56583 2.90996C2.12518 3.00078 1.72765 3.25507 1.4418 3.62897C1.15594 4.00287 0.999696 4.47294 1 4.95811V7" stroke="white" stroke-width="1.3" stroke-linejoin="round"/>
<path d="M13.5 10.35C13.3319 10.35 13.1675 10.3001 13.0278 10.2067C12.888 10.1133 12.779 9.9806 12.7147 9.82528C12.6504 9.66996 12.6335 9.49906 12.6663 9.33417C12.6991 9.16929 12.7801 9.01784 12.899 8.89896C13.0178 8.78009 13.1693 8.69913 13.3342 8.66633C13.4991 8.63354 13.67 8.65037 13.8253 8.7147C13.9806 8.77904 14.1133 8.88798 14.2067 9.02777C14.3001 9.16755 14.35 9.33189 14.35 9.5C14.35 9.72543 14.2604 9.94163 14.101 10.101C13.9416 10.2604 13.7254 10.35 13.5 10.35Z" fill="#1673FF" stroke="white" stroke-width="1.3"/>
</svg>
